<svg width="500" height="500" viewBox="0 0 500 500" fill="none" xmlns="http://www.w3.org/2000/svg">
<g clip-path="url(#clip0_298_30)">
<rect width="500" height="500" fill="#E67E22"/>
<line x1="53.0218" y1="279.326" x2="170.515" y2="279.326" stroke="white" stroke-width="32.0435" stroke-linecap="round"/>
<line x1="118.373" y1="123.259" x2="205.705" y2="201.857" stroke="white" stroke-width="32.0435" stroke-linecap="round"/>
<line x1="277.326" y1="55.0218" x2="277.326" y2="172.515" stroke="white" stroke-width="32.0435" stroke-linecap="round"/>
<line x1="357.435" y1="197.922" x2="440.515" y2="114.842" stroke="white" stroke-width="32.0435" stroke-linecap="round"/>
<line x1="117.69" y1="438.255" x2="202.872" y2="357.332" stroke="white" stroke-width="32.0435" stroke-linecap="round"/>
<path d="M562.432 361.114L562.432 361.115L548.179 531.139C547.447 539.878 540.441 546.774 531.688 547.366L355.357 559.298C355.357 559.298 355.357 559.298 355.357 559.298C346.738 559.881 338.953 554.176 336.912 545.785L336.911 545.785L274.621 289.759C271.391 276.483 283.743 264.687 296.857 268.528L562.432 361.114ZM562.432 361.114C563.136 352.71 557.829 344.969 549.733 342.598C549.733 342.598 549.732 342.598 549.731 342.597L296.857 268.529L562.432 361.114ZM291.938 285.323L291.968 285.221L291.938 285.323ZM291.938 285.323L292.354 285.445L292.354 285.445L308.516 290.179M291.938 285.323C291.753 285.269 291.579 285.435 291.625 285.622L291.727 286.043L291.727 286.043L308.516 290.179M308.516 290.179C309.267 287.48 309.368 284.522 308.629 281.485M308.516 290.179L308.629 281.485M287.034 302.122L296.299 304.836M287.034 302.122C287.029 302.12 287.024 302.119 287.019 302.117L287.019 302.117L287.034 302.122ZM287.034 302.122L296.299 304.836M296.299 304.836L353.915 541.647C353.944 541.766 354.054 541.846 354.175 541.838L296.299 304.836ZM310.915 290.881L308.629 281.485M310.915 290.881L308.629 281.485L308.629 281.485M310.915 290.881L544.814 359.392L310.915 290.881Z" fill="white" stroke="white" stroke-width="35"/>
</g>
<rect x="7.5" y="7.5" width="485" height="485" stroke="white" stroke-width="15"/>
<defs>
<clipPath id="clip0_298_30">
<rect width="500" height="500" fill="white"/>
</clipPath>
</defs>
</svg>
